# xmcd CD database file
#
# Track frame offsets:
#	150
#	21508
#	59565
#	91290
#	122453
#	148706
#	194977
#
# Disc length: 3009 seconds
#
# Revision: 0
# Processed by: cddbd v1.5.1PL0 Copyright (c) Steve Scherf et al.
# Submitted via: CDex 1.51
#
DISCID=6a0bbf07
DTITLE=Keiji Matsumoto - Live - 040715
DYEAR=2005
DGENRE=Jazz
TTITLE0=Sketch of India
TTITLE1=Reflections of You
TTITLE2=Four Attacks
TTITLE3=Five Islands
TTITLE4=Eight Days We Live
TTITLE5=a Day in Green
TTITLE6=Promises of Rain
EXTD=YEAR: 2005
EXTT0=
EXTT1=
EXTT2=
EXTT3=
EXTT4=
EXTT5=
EXTT6=
PLAYORDER=
